PathFileType        4      (X/Y/Z)      Flexion.trc         																																																																												
DataRate	CameraRate	NumFrames	NumMarkers	Units	OrigDataRate	OrigDataStartFrame	OrigNumFrames																																																																					
100	100	10	25	mm	100	659	1053																																																																					
Frame#	Time	AA			AI			Ant_Sh			CV7			GH			LAH			Lat_Sh			LCAJ			LPH			Post_Sh			RAH			RCAJ			RHLE			RHME			RPH			RUA			SJN			SXS			TS			TV8			centelbow			centpxt8			centijc7			centLPHRPH			ScapulaThoracicContactPt		
		X1	Y1	Z1	X2	Y2	Z2	X3	Y3	Z3	X4	Y4	Z4	X5	Y5	Z5	X6	Y6	Z6	X7	Y7	Z7	X8	Y8	Z8	X9	Y9	Z9	X10	Y10	Z10	X11	Y11	Z11	X12	Y12	Z12	X13	Y13	Z13	X14	Y14	Z14	X15	Y15	Z15	X16	Y16	Z16	X17	Y17	Z17	X18	Y18	Z18	X19	Y19	Z19	X20	Y20	Z20	X21	Y21	Z21	X22	Y22	Z22	X23	Y23	Z23	X24	Y24	Z24	X25	Y25	Z25
659	6.58	-854.5543823	1557.296997	-388.0625	-905.2418213	1368.901733	-431.5641174	-752.1304321	1579.826172	-456.6254272	-916.6151123	1591.352051	-574.9750366	-794.6777954	1552.099487	-420.0297852	-710.7713623	1782.288086	-618.1578979	-799.0557251	1586.100342	-399.3590393	-866.5080566	1563.495972	-764.2744141	-912.3464966	1724.615723	-629.9797974	-855.8490601	1512.236572	-367.4155884	-712.8721924	1774.996704	-521.2747192	-831.9440308	1581.097412	-444.0034485	-539.9710693	1597.458374	-331.4400635	-496.7210999	1508.857544	-398.1940918	-910.2619019	1720.313965	-513.468689	-682.7561646	1496.206177	-333.7753296	-746.0811768	1515.385376	-598.8388062	-683.9562378	1342.102051	-602.9032593	-944.6235962	1495.328003	-467.4035339	-914.3131104	1303.255615	-592.5274658	-518.3460846	1553.157959	-364.8170776	-799.1346741	1322.678833	-597.7153625	-831.3481445	1553.368713	-586.9069214	-911.3041992	1722.464844	-571.7242432	-901.4732666	1473.842244	-429.0100505
660	6.59	-854.6660156	1557.443237	-388.3139954	-905.0809326	1369.051025	-431.526062	-752.2857666	1580.192261	-456.9282227	-916.5894165	1591.285645	-574.9709473	-794.8032227	1552.353027	-420.1816101	-710.8471069	1782.311157	-618.2209473	-799.3014526	1586.42627	-399.5724487	-866.6268921	1563.487793	-764.2886353	-912.4033813	1724.553711	-630.0093994	-855.7456665	1512.449707	-367.5107422	-712.9653931	1774.989258	-521.3759155	-832.0773315	1581.17334	-444.1585388	-540.3844604	1599.402466	-331.5280457	-496.7373962	1510.651123	-398.5135193	-910.3460693	1720.275635	-513.5111084	-682.6137695	1496.969116	-334.0636597	-745.6993408	1514.628662	-599.2822266	-683.8847046	1342.127441	-602.9970703	-944.5388794	1495.276855	-467.3908691	-914.2182617	1303.233643	-592.4664307	-518.5609283	1555.026794	-365.0207825	-799.0514832	1322.680542	-597.7317505	-831.1443787	1552.957153	-587.1265869	-911.3747253	1722.414673	-571.7602539	-901.4286092	1473.923706	-429.0769755
661	6.6	-854.7366333	1557.549194	-388.5728455	-904.9022827	1369.009033	-431.4583435	-752.4365845	1580.656738	-457.3133545	-916.6012573	1591.220093	-575.0080566	-794.9326172	1552.674194	-420.3884888	-710.9189453	1782.377563	-618.2575073	-799.4638062	1586.70813	-399.8117371	-866.7393799	1563.423584	-764.3198853	-912.4447021	1724.535156	-630.0722046	-855.6948242	1512.66394	-367.5920715	-713.0101318	1775.017944	-521.4279175	-832.1899414	1581.266479	-444.3709106	-541.9243164	1601.053101	-330.6001282	-496.8493652	1512.291504	-398.8321533	-910.3781128	1720.211426	-513.6008911	-682.5510254	1497.697388	-334.2807007	-745.6383667	1514.737183	-599.513916	-683.8134766	1342.221069	-603.1387939	-944.4943237	1495.257935	-467.3977051	-914.0958252	1303.180054	-592.3867798	-519.3868408	1556.672302	-364.7161407	-798.9546509	1322.700562	-597.7627869	-831.119812	1552.978638	-587.2609863	-911.4114075	1722.373291	-571.8365479	-901.3777466	1473.938721	-429.1429647
662	6.61	-854.7862549	1557.671875	-388.7845154	-904.725647	1369.065186	-431.4633789	-752.5241699	1580.99646	-457.401001	-916.6383667	1591.159912	-575.1837158	-794.9746094	1552.93689	-420.4947205	-711.0037842	1782.393066	-618.3938599	-799.6719971	1586.955078	-400.0339966	-866.8391113	1563.34668	-764.3792114	-912.5050659	1724.486938	-630.1924438	-855.6850586	1512.807495	-367.7131653	-713.0760498	1775.060791	-521.5056763	-832.296936	1581.351318	-444.6430664	-542.2211304	1602.395386	-330.6168518	-496.857666	1513.674072	-399.067749	-910.454895	1720.165283	-513.6987915	-682.4731445	1498.415161	-334.5540466	-745.6549072	1515.016724	-599.81604	-683.7086182	1342.259521	-603.2196045	-944.4176636	1495.217041	-467.4170837	-913.9810791	1303.135376	-592.2639771	-519.5393982	1558.034729	-364.8423004	-798.8448486	1322.697449	-597.7417908	-831.146637	1553.088318	-587.4998779	-911.4799805	1722.326111	-571.9456177	-901.3098551	1473.984701	-429.2216593
663	6.62	-854.8738403	1557.876343	-389.0512695	-904.5679321	1369.053223	-431.4509888	-752.619751	1581.289063	-457.6566772	-916.6293335	1591.108765	-575.2189941	-795.0638428	1553.130737	-420.6537476	-711.0587769	1782.470581	-618.4971313	-799.8724976	1587.153687	-400.2789917	-866.9217529	1563.304077	-764.440979	-912.5464478	1724.456299	-630.2557373	-855.6616211	1512.928833	-367.8241577	-713.1361084	1775.085938	-521.6135864	-832.3959961	1581.437378	-444.7983093	-542.475708	1603.478149	-330.7461243	-497.0094299	1514.851318	-399.3286438	-910.4785767	1720.15332	-513.788208	-682.4033813	1499.101807	-334.7653503	-745.6726074	1515.239502	-599.9766846	-683.6537476	1342.321777	-603.333252	-944.4247437	1495.172607	-467.4490356	-913.8853149	1303.113281	-592.21698	-519.742569	1559.164734	-365.037384	-798.7695313	1322.717529	-597.775116	-831.1509705	1553.174133	-587.5978394	-911.5125122	1722.30481	-572.0219727	-901.2888387	1474.034058	-429.317098
664	6.63	-854.8692017	1557.980103	-389.2765198	-904.4350586	1369.071289	-431.4130859	-752.7697754	1581.538818	-457.9756775	-916.6669312	1591.082642	-575.3474121	-795.159668	1553.334717	-420.8739319	-711.1485596	1782.471069	-618.6452026	-800.0115967	1587.344727	-400.5636597	-867.045105	1563.164917	-764.5037842	-912.6079102	1724.471069	-630.4203491	-855.5927734	1513.12561	-367.9798279	-713.1693726	1775.066162	-521.7597656	-832.5072021	1581.533081	-445.0105286	-542.7329712	1604.369385	-330.8606873	-497.0901184	1515.89209	-399.4391785	-910.5696411	1720.137817	-513.956604	-682.4089966	1499.662354	-334.9511414	-745.6821899	1515.337158	-600.144043	-683.6229858	1342.371948	-603.4959106	-944.3804321	1495.208618	-467.5553589	-913.7982788	1303.079102	-592.1393433	-519.9115448	1560.130737	-365.1499329	-798.7106323	1322.725525	-597.817627	-831.1745605	1553.2099	-587.7457275	-911.5887756	1722.304443	-572.1884766	-901.2282308	1474.08667	-429.4149882
665	6.64	-854.8811035	1558.101563	-389.5254517	-904.3210449	1369.125244	-431.438446	-752.8652954	1581.741577	-458.2191772	-916.661438	1591.057739	-575.4248657	-795.2310791	1553.488647	-421.0830383	-711.1960449	1782.505737	-618.8001709	-800.1960449	1587.51123	-400.8629761	-867.1698608	1563.09668	-764.5930786	-912.6542358	1724.470947	-630.5734863	-855.6372681	1513.204712	-368.1334229	-713.2202759	1775.141357	-521.9067383	-832.625	1581.582642	-445.3415527	-542.9887695	1605.030518	-330.9508057	-497.1528015	1516.705566	-399.4391174	-910.6392822	1720.147339	-514.1333008	-682.4399414	1499.908569	-335.0914307	-745.6813354	1515.444458	-600.3456421	-683.6117554	1342.482056	-603.5481567	-944.3422852	1495.219971	-467.6505127	-913.7719727	1303.081787	-592.100708	-520.0707855	1560.868042	-365.1949615	-798.691864	1322.781921	-597.8244324	-831.1713867	1553.251099	-587.8852539	-911.646759	1722.309143	-572.3533936	-901.1814779	1474.148926	-429.5381368
666	6.65	-854.942688	1558.196167	-389.765625	-904.2946777	1369.27417	-431.3552856	-752.973999	1581.84436	-458.5041809	-916.7124634	1591.025635	-575.5882568	-795.2800903	1553.63501	-421.302948	-711.2250366	1782.489136	-618.9209595	-800.3221436	1587.685791	-401.2165222	-867.3045044	1563.032471	-764.6901855	-912.7045288	1724.482056	-630.7647705	-855.5971069	1513.41626	-368.2641907	-713.2764282	1775.11853	-522.0775146	-832.6957397	1581.625977	-445.5373535	-543.3265991	1605.592529	-330.9113464	-497.2620544	1517.27124	-399.4324646	-910.1915894	1719.947144	-515.7892456	-682.5300903	1500.170044	-335.2220764	-745.6697998	1515.549927	-600.5393677	-683.5545654	1342.555908	-603.6810913	-944.3196411	1495.201538	-467.710968	-913.6923218	1303.039185	-592.0510864	-520.2943268	1561.431885	-365.1719055	-798.6234436	1322.797546	-597.8660889	-831.1911316	1553.287781	-588.0638123	-911.4480591	1722.2146	-573.2770081	-901.1856689	1474.223958	-429.6106262
667	6.66	-854.9727173	1558.287964	-390.0151062	-904.1834106	1369.316772	-431.4371338	-753.0448608	1581.94519	-458.7538452	-916.6660156	1590.440796	-574.8987427	-795.276001	1553.76123	-421.5524292	-711.2191162	1782.498047	-619.0147095	-800.3847656	1587.855713	-401.5217896	-867.447937	1562.983276	-764.8415527	-912.7626953	1724.498779	-630.9799805	-855.5836792	1513.51355	-368.4273682	-713.3101807	1775.115845	-522.225708	-832.8027344	1581.710938	-445.8096008	-543.508667	1606.268188	-330.867981	-497.3379517	1517.713623	-399.3788757	-910.2709961	1719.968384	-515.9259033	-682.6439209	1500.406738	-335.3686523	-745.6567993	1515.604614	-600.729248	-683.4707031	1342.65979	-603.8668823	-944.3104248	1495.19397	-467.8403625	-913.6658936	1302.992798	-592.0126343	-520.4233093	1561.990906	-365.1234283	-798.5682983	1322.826294	-597.9397583	-831.1614075	1553.022705	-587.8139954	-911.5168457	1722.233582	-573.4529419	-901.1555176	1474.266235	-429.7642008
668	6.67	-854.9962158	1558.389282	-390.1689453	-904.1448364	1369.345825	-431.4799805	-753.0949707	1582.036377	-458.9186096	-916.7234497	1590.421143	-575.0027466	-795.3004761	1553.842285	-421.755188	-711.2714233	1782.441406	-619.2008667	-800.503479	1587.989136	-401.7583618	-867.5672607	1562.9021	-764.96521	-912.8189087	1724.500488	-631.1824341	-855.5700073	1513.580811	-368.68573	-713.3660278	1775.109863	-522.3858643	-832.8956909	1581.798706	-446.0992432	-543.7109985	1606.628906	-330.9334717	-497.3999634	1517.931885	-399.2680359	-910.2969971	1719.963257	-516.1469727	-682.723877	1500.593872	-335.4659424	-745.6983032	1515.678833	-600.8649292	-683.4328003	1342.731812	-604.0646973	-944.2766724	1495.154419	-467.9985657	-913.590271	1302.953369	-591.9742432	-520.555481	1562.280396	-365.1007538	-798.5115356	1322.84259	-598.0194702	-831.2108765	1553.049988	-587.9338379	-911.5579529	1722.231873	-573.6647034	-901.1392415	1474.296509	-429.8824972
